<?xml version="1.0" encoding="UTF-8"?>
<svg id="Layer_2" data-name="Layer 2" xmlns="http://www.w3.org/2000/svg" viewBox="0 0 25 25">
  <defs>
    <style>
      .cls-1 {
        fill: none;
      }
    </style>
  </defs>
  <ellipse cx="12.6" cy="5.22" rx="1.89" ry="1.95"/>
  <line class="cls-1" x1="7.4" y1="6.38" x2="7.4" y2="6.38"/>
  <path d="M9.69,10.4s.01.01.01.02l-.41-.25c.06.03.13.07.21.11,0,.01.01.01.02.02.01,0,.01.01.02.01.01.01.03.03.12.07t.03.02Z"/>
  <path d="M9.78,10.58v.02l-.03-.07s.02.03.03.05Z"/>
  <path d="M9.8,10.63v.02l-.02-.05h0s0,.02.01.03Z"/>
  <path d="M9.8,10.63v.17s-.01.03-.01.03v.11s0-.34,0-.34h0s0,.02.01.03Z"/>
  <path d="M19.64,7.12c0,.1.01.28-.08.48-.03.07-.08.16-.18.28-.21.25-.42.36-.9.66-.19.13-.06.05-.36.24-.48.31-.74.47-1.2.75-.35.21-.62.37-.82.49-.05.03-.08.04-.11.06-.06.04-.12.07-.16.09-.06.03-.13.07-.21.11,0,.01-.01.01-.02.02,0,0,0,.01-.02.01-.01.01-.03.03-.12.07t-.03.02s-.01.01-.01.02l-.05.11s-.02.03-.03.05v.02h-.01s0,.02-.01.03v.17s.01.03.01.03l.02.37v.38c0,.3,0,.38,0,.38-.04,1.03-.08,1.48-.08,2.1.01.71.01,1.26.22,1.94.03.11.11.32.27.75.23.58.45,1.12.68,1.64.39.9.36.76.51,1.14.36.92.74,1.89.32,2.53-.22.33-.57.46-.59.47-.29.1-.58.07-.77,0-.41-.15-.51-.58-.91-1.74,0,0-.02-.06-1.04-2.77-.21-.56-.1-.22-.22-.53-.09-.24-.13-.37-.25-.53-.1-.13-.19-.2-.22-.23-.06-.04-.19-.14-.38-.19-.13-.04-.24-.03-.26-.03s-.04-.01-.06-.03c-.02.02-.04.03-.06.03s-.13-.01-.26.03c-.19.05-.32.15-.38.19-.03.03-.12.1-.22.23-.12.16-.16.29-.25.53-.12.31-.01-.03-.22.53-1.02,2.71-1.04,2.77-1.04,2.77-.4,1.16-.5,1.59-.91,1.74-.19.07-.48.1-.77,0-.02-.01-.37-.14-.59-.47-.42-.64-.04-1.61.32-2.53.15-.38.12-.24.51-1.14.23-.52.45-1.06.68-1.64.16-.43.24-.64.27-.75.21-.68.21-1.23.22-1.94,0-.62-.04-1.07-.08-2.1,0,0,0-.08-.01-.38v-.64s.02-.11.02-.11v-.16s.01-.02.01-.02v-.02s-.01-.02-.01-.03h0v-.02s-.02-.03-.03-.05l-.05-.11s0-.01-.01-.02t-.03-.02c-.09-.04-.11-.06-.12-.07,0,0,0-.01-.02-.01-.01-.01-.02-.01-.02-.02-.08-.04-.15-.08-.21-.11-.04-.02-.1-.05-.16-.09-.03-.02-.06-.03-.11-.06-.2-.12-.47-.28-.82-.49-.46-.28-.72-.44-1.2-.75-.3-.19-.17-.11-.36-.24-.48-.3-.69-.41-.9-.66-.1-.12-.15-.21-.18-.28-.09-.2-.08-.38-.08-.48.01-.13.02-.44.25-.71.2-.24.46-.31.57-.34.04,0,.07-.01.1-.01.02,0,.06-.01.13-.01,0,0,.05,0,.09.01.09,0,.16.02.19.03.07.02.13.04.19.06.03.01.09.04.21.1s.21.12.27.16c.11.06.19.11.29.18q.06.04.11.07c.11.08.2.13.26.17.26.17.46.3.59.39.05.02.09.05.16.1.11.07.18.14.42.31.51.35.82.57,1.25.75.46.2.88.29,1.01.31.33.07.49.1.68.11.17.01.27.02.31.03.04,0,.14-.02.31-.03.19-.01.35-.04.68-.11.13-.02.55-.11,1.01-.31.43-.18.74-.4,1.25-.75.24-.17.31-.24.42-.31.07-.05.11-.08.16-.1.13-.09.33-.22.59-.39.06-.04.15-.09.26-.17t.11-.07c.1-.07.18-.12.29-.18.06-.04.15-.1.27-.16.12-.06.18-.09.21-.1.06-.02.12-.04.19-.06.03-.01.1-.03.19-.03.04-.01.08-.01.09-.01.07,0,.11.01.13.01.03,0,.06.01.1.01.11.03.37.1.57.34.23.27.24.58.25.71Z"/>
</svg>